HIERARCHY
ROOT Hips
{
 OFFSET 0.000000 0.000000 0.000000
 CHANNELS 6 Xposition Yposition Zposition Yrotation Xrotation Zrotation
 JOINT Chest
 {
  OFFSET 0.000000 9.588913 -0.003946
  CHANNELS 3 Yrotation Xrotation Zrotation
  JOINT Chest2
  {
   OFFSET 0.000000 9.541882 0.008053
   CHANNELS 3 Yrotation Xrotation Zrotation
   JOINT Chest3
   {
    OFFSET 0.000000 9.501360 0.000000
    CHANNELS 3 Yrotation Xrotation Zrotation
    JOINT Chest4
    {
     OFFSET 0.000000 9.491660 0.000000
     CHANNELS 3 Yrotation Xrotation Zrotation
     JOINT Neck
     {
      OFFSET 0.000000 14.331917 0.000000
      CHANNELS 3 Yrotation Xrotation Zrotation
      JOINT Head
      {
       OFFSET 0.000000 8.884799 0.017034
       CHANNELS 3 Yrotation Xrotation Zrotation
       End Site
       {
        OFFSET 0.000000 16.896195 0.008993
       }
      }
     }
     JOINT RightCollar
     {
      OFFSET -2.923010 9.499495 0.000000
      CHANNELS 3 Yrotation Xrotation Zrotation
      JOINT RightShoulder
      {
       OFFSET -13.795216 0.000000 0.000000
       CHANNELS 3 Yrotation Xrotation Zrotation
       JOINT RightElbow
       {
        OFFSET -30.272209 0.000000 0.000000
        CHANNELS 3 Yrotation Xrotation Zrotation
        JOINT RightWrist
        {
         OFFSET -24.478199 0.000000 0.000000
         CHANNELS 3 Yrotation Xrotation Zrotation
         End Site
         {
          OFFSET -18.090752 0.000000 0.000000
         }
        }
       }
      }
     }
     JOINT LeftCollar
     {
      OFFSET 2.923010 9.499495 0.000000
      CHANNELS 3 Yrotation Xrotation Zrotation
      JOINT LeftShoulder
      {
       OFFSET 13.795216 0.000000 0.000000
       CHANNELS 3 Yrotation Xrotation Zrotation
       JOINT LeftElbow
       {
        OFFSET 30.272209 0.000000 0.000000
        CHANNELS 3 Yrotation Xrotation Zrotation
        JOINT LeftWrist
        {
         OFFSET 24.478199 0.000000 0.000000
         CHANNELS 3 Yrotation Xrotation Zrotation
         End Site
         {
          OFFSET 18.090752 0.000000 0.000000
         }
        }
       }
      }
     }
    }
   }
  }
 }
 JOINT RightHip
 {
  OFFSET -7.826875 0.019532 0.001973
  CHANNELS 3 Yrotation Xrotation Zrotation
  JOINT RightKnee
  {
   OFFSET 0.000000 -40.546152 -0.001885
   CHANNELS 3 Yrotation Xrotation Zrotation
   JOINT RightAnkle
   {
    OFFSET 0.000000 -39.417092 -0.003189
    CHANNELS 3 Yrotation Xrotation Zrotation
    JOINT RightToe
    {
     OFFSET 0.000000 -7.579396 17.243563
     CHANNELS 3 Yrotation Xrotation Zrotation
     End Site
     {
      OFFSET 0.000000 -1.500329 6.694466
     }
    }
   }
  }
 }
 JOINT LeftHip
 {
  OFFSET 7.826875 0.019532 0.001973
  CHANNELS 3 Yrotation Xrotation Zrotation
  JOINT LeftKnee
  {
   OFFSET 0.000000 -40.546152 -0.001885
   CHANNELS 3 Yrotation Xrotation Zrotation
   JOINT LeftAnkle
   {
    OFFSET 0.000000 -39.417092 -0.003189
    CHANNELS 3 Yrotation Xrotation Zrotation
    JOINT LeftToe
    {
     OFFSET 0.000000 -7.579396 17.243563
     CHANNELS 3 Yrotation Xrotation Zrotation
     End Site
     {
      OFFSET 0.000000 -1.500329 6.694466
     }
    }
   }
  }
 }
}
MOTION
Frames: 16
Frame Time: 0.008333
0.000000 87.345680 0.000000 0.000000 -5.767889 0.000000 0.000000 11.653876 0.000000 0.000000 -5.885988 0.000000 0.000000 -0.000000 0.000000 0.000000 -0.000000 0.000000 0.000000 12.528808 0.000000 0.000000 0.711711 0.000000 0.000000 -0.000000 0.000000 0.000000 -0.000000 0.000000 2.309063 -0.000000 0.000000 -2.309063 -0.000000 -0.000000 0.000000 -0.000000 0.000000 0.000000 0.000000 0.000000 -2.309063 0.000000 0.000000 2.309063 -0.000000 0.000000 0.000000 8.520374 0.000000 0.000000 1.905768 0.000000 -0.000000 -4.658254 0.000000 0.000000 -0.000000 0.000000 0.000000 8.520374 0.000000 0.000000 1.905768 0.000000 -0.000000 -4.658254 0.000000 0.000000 -0.000000 0.000000
0.303530 85.663991 -6.036774 -33.462486 13.031510 -6.523534 -1.581379 16.516030 -4.959473 -0.773999 9.466399 -2.949113 -1.048492 11.825689 -3.719541 -0.773999 9.466400 -2.949113 9.975152 17.318598 -2.364382 19.173493 -2.646667 -7.632207 9.723666 -0.778521 -4.540719 7.514221 -8.274005 91.111784 38.346894 2.754091 10.737817 -0.508160 -2.809763 -3.848835 -6.346643 -2.109346 -1.341891 -7.443625 -41.819884 -56.396145 0.040352 -9.098966 2.750499 -8.395341 -8.637909 21.679642 -11.260564 -30.259352 17.025135 -1.566765 20.267435 -2.775405 -10.121912 -3.542115 -3.738895 0.205622 0.571923 0.092641 -7.143934 -39.714067 10.247974 -7.926991 32.657124 -2.194702 3.066944 -4.877896 -2.206443 -0.117661 -0.071649 -0.062733
0.313016 85.612769 -6.123051 -33.478076 13.383149 -6.629905 -1.592679 16.557115 -4.994973 -0.778059 9.475207 -2.961603 -1.053995 11.836630 -3.735358 -0.778060 9.475208 -2.961602 9.873682 17.200277 -2.354440 18.998912 -2.881589 -7.601773 9.771593 -0.804072 -4.545616 7.579392 -8.351611 91.133321 38.285198 2.683053 10.638965 -0.504352 -2.836080 -3.866989 -6.381921 -2.106218 -1.242247 -7.789952 -42.009495 -55.924218 0.274252 -9.146692 2.695713 -8.571002 -8.633415 21.775367 -11.452906 -30.761704 17.320051 -1.584265 20.531220 -2.820206 -10.150879 -3.530003 -3.753067 0.209370 0.496268 0.094608 -7.315993 -40.325280 10.430497 -8.008132 33.048056 -2.175913 3.104627 -4.899815 -2.265168 -0.117123 -0.140996 -0.065112
0.318154 85.553940 -6.216486 -33.506963 13.743833 -6.758765 -1.586529 16.578849 -5.005486 -0.780789 9.483731 -2.971309 -1.057754 11.847234 -3.747647 -0.780790 9.483732 -2.971308 9.772829 17.080605 -2.346562 18.826162 -3.118454 -7.575203 9.817811 -0.827852 -4.553905 7.628558 -8.430939 91.151940 38.213747 2.622598 10.547637 -0.499042 -2.861327 -3.885062 -6.421898 -2.104068 -1.147808 -8.123529 -42.183049 -55.477235 0.516093 -9.166640 2.654738 -8.770274 -8.623547 21.923493 -11.622993 -31.265514 17.634988 -1.609565 20.775430 -2.870124 -10.175610 -3.560840 -3.769318 0.219737 0.473373 0.100198 -7.501422 -40.944093 10.651171 -8.072281 33.441019 -2.150804 3.132100 -4.954623 -2.328287 -0.116394 -0.179407 -0.066520
0.320127 85.490240 -6.312162 -33.536203 14.101680 -6.888830 -1.578492 16.595186 -5.009806 -0.782986 9.492410 -2.978445 -1.060778 11.858043 -3.756700 -0.782986 9.492410 -2.978445 9.672739 16.959975 -2.342679 18.656104 -3.356186 -7.556019 9.863836 -0.852585 -4.567682 7.665090 -8.510089 91.171966 38.136681 2.570215 10.463562 -0.491808 -2.883307 -3.904335 -6.465077 -2.109962 -1.065425 -8.459866 -42.332609 -55.039632 0.762077 -9.176697 2.625088 -9.007556 -8.600838 22.139496 -11.788582 -31.759473 17.956605 -1.640701 21.006482 -2.929514 -10.197241 -3.599600 -3.784825 0.235194 0.462699 0.106485 -7.697036 -41.553673 10.878681 -8.121910 33.827470 -2.111996 3.152935 -5.025062 -2.400117 -0.116965 -0.201040 -0.065956
0.319783 85.424769 -6.407930 -33.563908 14.456041 -7.012255 -1.573078 16.609452 -5.012681 -0.785638 9.500691 -2.984262 -1.064337 11.868354 -3.764108 -0.785639 9.500691 -2.984261 9.573974 16.840302 -2.343868 18.489910 -3.591006 -7.546094 9.912531 -0.881623 -4.588858 7.696339 -8.585487 91.195305 38.055940 2.521992 10.382079 -0.482359 -2.904395 -3.925890 -6.505081 -2.124468 -0.995565 -8.802657 -42.463009 -54.610244 1.005351 -9.198087 2.604613 -9.280586 -8.556351 22.423584 -11.977259 -32.236584 18.289901 -1.666864 21.225129 -2.997158 -10.215700 -3.644499 -3.800459 0.250070 0.459300 0.110872 -7.905714 -42.148901 11.104223 -8.169362 34.200637 -2.064405 3.185579 -5.100548 -2.481126 -0.118126 -0.213897 -0.064649
0.317410 85.359850 -6.502421 -33.593193 14.805658 -7.127134 -1.569227 16.621760 -5.016620 -0.788477 9.507836 -2.990059 -1.068117 11.877244 -3.771491 -0.788477 9.507836 -2.990059 9.477560 16.724046 -2.348985 18.328804 -3.818455 -7.543290 9.965698 -0.912883 -4.614826 7.727140 -8.657753 91.218863 37.971139 2.474715 10.301234 -0.471238 -2.928678 -3.946373 -6.542410 -2.142687 -0.931080 -9.139933 -42.579686 -54.202952 1.239544 -9.230908 2.601921 -9.578738 -8.495015 22.757033 -12.191756 -32.689341 18.631706 -1.680969 21.422547 -3.067499 -10.227626 -3.690295 -3.818567 0.258384 0.461736 0.112907 -8.129818 -42.724672 11.329456 -8.221287 34.555624 -2.014987 3.238225 -5.176039 -2.569115 -0.118331 -0.221991 -0.064210
0.312800 85.296893 -6.595140 -33.626363 15.149571 -7.236006 -1.564044 16.631214 -5.022410 -0.791174 9.514126 -2.996874 -1.071740 11.885063 -3.780143 -0.791175 9.514126 -2.996874 9.385783 16.611335 -2.356054 18.176354 -4.038314 -7.544736 10.022826 -0.944764 -4.641168 7.761522 -8.729534 91.239540 37.884118 2.424871 10.222333 -0.460758 -2.954081 -3.962303 -6.580142 -2.158462 -0.865242 -9.457622 -42.688584 -53.827627 1.457620 -9.264203 2.618455 -9.885786 -8.433871 23.106227 -12.403768 -33.118139 18.966662 -1.688115 21.588897 -3.132502 -10.238908 -3.731085 -3.839611 0.257691 0.470142 0.112426 -8.364547 -43.280475 11.556345 -8.283652 34.892658 -1.967182 3.307154 -5.249289 -2.663787 -0.117159 -0.228470 -0.064279
0.305460 85.236647 -6.686596 -33.662962 15.489150 -7.345053 -1.555334 16.637463 -5.026341 -0.793643 9.520079 -3.004536 -1.075096 11.892462 -3.789849 -0.793644 9.520080 -3.004536 9.299907 16.501373 -2.364525 18.034830 -4.251972 -7.549998 10.081274 -0.980145 -4.666956 7.801548 -8.799773 91.258172 37.797935 2.372934 10.146377 -0.451697 -2.972974 -3.972160 -6.615923 -2.169787 -0.796244 -9.753958 -42.795163 -53.483061 1.651489 -9.321567 2.633112 -10.192639 -8.402369 23.429182 -12.590376 -33.529521 19.285407 -1.698385 21.723494 -3.189745 -10.243713 -3.762839 -3.862645 0.257082 0.483011 0.111733 -8.595063 -43.822345 11.778585 -8.368108 35.215766 -1.918347 3.392543 -5.318730 -2.766917 -0.115308 -0.235852 -0.063751
0.295111 85.179045 -6.776671 -33.701995 15.821583 -7.456997 -1.543252 16.642465 -5.028204 -0.794968 9.526437 -3.012511 -1.077028 11.900375 -3.799920 -0.794968 9.526438 -3.012510 9.219981 16.394016 -2.373817 17.904172 -4.459799 -7.558091 10.132731 -1.021056 -4.695615 7.854209 -8.861060 91.286027 37.724313 2.324575 10.067162 -0.445986 -2.983822 -3.975379 -6.645545 -2.177251 -0.723418 -10.033784 -42.899069 -53.164107 1.810884 -9.456408 2.618606 -10.510857 -8.420271 23.695612 -12.749225 -33.924674 19.591742 -1.722028 21.831598 -3.245269 -10.246101 -3.785266 -3.887170 0.259709 0.497338 0.111581 -8.814057 -44.350476 11.990053 -8.478168 35.529164 -1.863650 3.495416 -5.384589 -2.879421 -0.113695 -0.245039 -0.063214
0.280875 85.124429 -6.867753 -33.756361 16.152881 -7.589651 -1.512762 16.639304 -5.013749 -0.793771 9.533380 -3.020676 -1.075808 11.909039 -3.810166 -0.793771 9.533381 -3.020675 9.145205 16.288847 -2.382589 17.782517 -4.662914 -7.566390 10.171213 -1.066908 -4.725723 7.924305 -8.913950 91.319257 37.669280 2.277836 9.985790 -0.447527 -2.990509 -3.973465 -6.673056 -2.178602 -0.646223 -10.300745 -42.999963 -52.862023 1.920903 -9.700674 2.557640 -10.833571 -8.479361 23.907428 -12.886427 -34.311002 19.909510 -1.765099 21.920513 -3.301585 -10.255286 -3.828502 -3.915213 0.265471 0.538438 0.112673 -9.034253 -44.867470 12.219501 -8.601561 35.827224 -1.800295 3.617590 -5.436838 -3.000825 -0.113211 -0.260489 -0.064112
0.266546 85.070885 -6.954922 -33.803801 16.469663 -7.702743 -1.493361 16.644916 -5.017293 -0.789413 9.540145 -3.028799 -1.070622 11.917508 -3.820275 -0.789413 9.540146 -3.028799 9.073733 16.186041 -2.389898 17.666127 -4.861432 -7.572548 10.203747 -1.112087 -4.751979 8.001400 -8.975509 91.333396 37.618341 2.223367 9.918992 -0.452141 -2.993851 -3.969860 -6.703815 -2.169639 -0.568660 -10.558683 -43.101592 -52.566439 1.977278 -10.038291 2.455731 -11.136447 -8.547846 24.085224 -13.004415 -34.681700 20.191564 -1.823800 21.996977 -3.354029 -10.242925 -3.841787 -3.939820 0.261523 0.554314 0.107939 -9.253661 -45.365681 12.422924 -8.713514 36.125677 -1.725644 3.744448 -5.495163 -3.124057 -0.111790 -0.272606 -0.065518
0.250579 85.018625 -7.040906 -33.856616 16.777622 -7.816729 -1.469802 16.651353 -5.020422 -0.782177 9.546632 -3.037144 -1.061830 11.925654 -3.830585 -0.782178 9.546633 -3.037144 9.005410 16.086541 -2.395318 17.554447 -5.053713 -7.575596 10.234830 -1.151658 -4.773360 8.074133 -9.050620 91.327436 37.570782 2.171211 9.870373 -0.455625 -2.998443 -3.963151 -6.734898 -2.151256 -0.494401 -10.797355 -43.210505 -52.282701 1.993604 -10.404313 2.340170 -11.405239 -8.592008 24.236448 -13.113060 -35.040540 20.459722 -1.887111 22.067993 -3.397987 -10.201187 -3.854387 -3.962847 0.257449 0.571800 0.101336 -9.489601 -45.845737 12.640706 -8.802513 36.416866 -1.640799 3.860612 -5.553316 -3.250316 -0.111651 -0.283482 -0.067479
0.232924 84.967101 -7.125710 -33.914181 17.074716 -7.930390 -1.443668 16.658592 -5.025068 -0.773263 9.553353 -3.046150 -1.050952 11.934104 -3.841680 -0.773263 9.553354 -3.046150 8.941948 15.991412 -2.399770 17.450821 -5.237391 -7.577647 10.264870 -1.185899 -4.791153 8.136429 -9.130438 91.313103 37.541049 2.135487 9.836881 -0.461193 -3.007287 -3.952165 -6.761492 -2.126682 -0.420954 -10.986900 -43.338354 -52.035397 1.988009 -10.711299 2.233466 -11.633160 -8.608478 24.365138 -13.225906 -35.384737 20.722394 -1.945182 22.138097 -3.432170 -10.144387 -3.867546 -3.987647 0.250905 0.589241 0.093459 -9.751332 -46.303792 12.878106 -8.868147 36.700710 -1.550130 3.975983 -5.613009 -3.380528 -0.110824 -0.291656 -0.068785
0.214009 84.915915 -7.209480 -33.973975 17.361696 -8.038430 -1.418322 16.665773 -5.034329 -0.764121 9.559875 -3.055901 -1.039806 11.942307 -3.853702 -0.764121 9.559876 -3.055901 8.884341 15.902442 -2.404329 17.357238 -5.408845 -7.580763 10.295263 -1.214292 -4.807603 8.182286 -9.211650 91.292053 37.533117 2.117543 9.826029 -0.466608 -3.017434 -3.941748 -6.782078 -2.094504 -0.348369 -11.115971 -43.493729 -51.838188 1.975517 -10.911843 2.149237 -11.833306 -8.617597 24.485102 -13.354089 -35.712404 20.987047 -1.996528 22.204769 -3.459610 -10.096133 -3.882393 -4.016310 0.234145 0.606981 0.081793 -10.042875 -46.740501 13.131414 -8.913499 36.977691 -1.455652 4.100171 -5.672292 -3.514916 -0.108362 -0.298558 -0.069916
0.193049 84.864863 -7.292757 -34.036222 17.637285 -8.142716 -1.392235 16.671853 -5.045561 -0.754572 9.566207 -3.066478 -1.028171 11.950274 -3.866749 -0.754572 9.566208 -3.066478 8.832291 15.820123 -2.407896 17.272712 -5.567405 -7.582768 10.322405 -1.235193 -4.823885 8.207456 -9.291903 91.268176 37.546467 2.118977 9.840898 -0.468870 -3.026135 -3.928926 -6.798874 -2.054423 -0.278508 -11.204650 -43.671158 -51.680880 1.967115 -11.021986 2.095827 -12.038760 -8.632922 24.606079 -13.494420 -36.021714 21.254920 -2.041004 22.266717 -3.483162 -10.051862 -3.898487 -4.049929 0.214291 0.626029 0.069448 -10.358593 -47.156995 13.400870 -8.947607 37.250460 -1.360884 4.228276 -5.731857 -3.651690 -0.105678 -0.305214 -0.072598
